<mxfile host="Electron" modified="2024-01-02T15:15:46.482Z" agent="Mozilla/5.0 (Macintosh; Intel Mac OS X 10_15_7) AppleWebKit/537.36 (KHTML, like Gecko) draw.io/22.1.16 Chrome/120.0.6099.109 Electron/28.1.0 Safari/537.36" etag="WHhlZgEOL5N-W7A9khLO" version="22.1.16" type="device">
  <diagram name="Page-1" id="WBMwxME1dDKrALJzojWC">
    <mxGraphModel dx="954" dy="614" grid="1" gridSize="10" guides="1" tooltips="1" connect="1" arrows="1" fold="1" page="1" pageScale="1" pageWidth="827" pageHeight="1169" background="#FFFFFF" math="0" shadow="0">
      <root>
        <mxCell id="0" />
        <mxCell id="1" parent="0" />
        <mxCell id="G_lizMxF7PAWGnHg-xAG-12" style="edgeStyle=orthogonalEdgeStyle;rounded=0;orthogonalLoop=1;jettySize=auto;html=1;entryX=0;entryY=0.5;entryDx=0;entryDy=0;strokeWidth=3;" parent="1" target="G_lizMxF7PAWGnHg-xAG-2" edge="1">
          <mxGeometry relative="1" as="geometry">
            <mxPoint x="194" y="285" as="sourcePoint" />
          </mxGeometry>
        </mxCell>
        <mxCell id="G_lizMxF7PAWGnHg-xAG-13" style="edgeStyle=orthogonalEdgeStyle;rounded=0;orthogonalLoop=1;jettySize=auto;html=1;exitX=1;exitY=0.5;exitDx=0;exitDy=0;entryX=0;entryY=0.5;entryDx=0;entryDy=0;strokeWidth=3;" parent="1" source="G_lizMxF7PAWGnHg-xAG-2" target="G_lizMxF7PAWGnHg-xAG-3" edge="1">
          <mxGeometry relative="1" as="geometry" />
        </mxCell>
        <mxCell id="G_lizMxF7PAWGnHg-xAG-17" value="" style="edgeStyle=orthogonalEdgeStyle;rounded=0;orthogonalLoop=1;jettySize=auto;html=1;strokeWidth=3;" parent="1" source="G_lizMxF7PAWGnHg-xAG-2" target="G_lizMxF7PAWGnHg-xAG-7" edge="1">
          <mxGeometry relative="1" as="geometry" />
        </mxCell>
        <mxCell id="G_lizMxF7PAWGnHg-xAG-2" value="&lt;font style=&quot;font-size: 30px;&quot; face=&quot;Times New Roman&quot;&gt;&lt;b style=&quot;&quot;&gt;s&lt;sub style=&quot;&quot;&gt;1&lt;/sub&gt;&lt;/b&gt;&lt;/font&gt;" style="ellipse;whiteSpace=wrap;html=1;aspect=fixed;strokeWidth=4;" parent="1" vertex="1">
          <mxGeometry x="244" y="260" width="50" height="50" as="geometry" />
        </mxCell>
        <mxCell id="G_lizMxF7PAWGnHg-xAG-14" value="" style="edgeStyle=orthogonalEdgeStyle;rounded=0;orthogonalLoop=1;jettySize=auto;html=1;strokeWidth=3;" parent="1" source="G_lizMxF7PAWGnHg-xAG-3" target="G_lizMxF7PAWGnHg-xAG-4" edge="1">
          <mxGeometry relative="1" as="geometry" />
        </mxCell>
        <mxCell id="G_lizMxF7PAWGnHg-xAG-18" value="" style="edgeStyle=orthogonalEdgeStyle;rounded=0;orthogonalLoop=1;jettySize=auto;html=1;strokeWidth=3;" parent="1" source="G_lizMxF7PAWGnHg-xAG-3" target="G_lizMxF7PAWGnHg-xAG-8" edge="1">
          <mxGeometry relative="1" as="geometry" />
        </mxCell>
        <mxCell id="G_lizMxF7PAWGnHg-xAG-3" value="&lt;font style=&quot;font-size: 30px;&quot;&gt;&lt;b style=&quot;border-color: var(--border-color); font-family: &amp;quot;Times New Roman&amp;quot;;&quot;&gt;s&lt;/b&gt;&lt;b style=&quot;border-color: var(--border-color); font-family: &amp;quot;Times New Roman&amp;quot;;&quot;&gt;&lt;sub style=&quot;&quot;&gt;2&lt;/sub&gt;&lt;/b&gt;&lt;/font&gt;" style="ellipse;whiteSpace=wrap;html=1;aspect=fixed;strokeWidth=4;" parent="1" vertex="1">
          <mxGeometry x="344" y="260" width="50" height="50" as="geometry" />
        </mxCell>
        <mxCell id="G_lizMxF7PAWGnHg-xAG-15" value="" style="edgeStyle=orthogonalEdgeStyle;rounded=0;orthogonalLoop=1;jettySize=auto;html=1;strokeWidth=3;" parent="1" source="G_lizMxF7PAWGnHg-xAG-4" target="G_lizMxF7PAWGnHg-xAG-5" edge="1">
          <mxGeometry relative="1" as="geometry" />
        </mxCell>
        <mxCell id="G_lizMxF7PAWGnHg-xAG-19" value="" style="edgeStyle=orthogonalEdgeStyle;rounded=0;orthogonalLoop=1;jettySize=auto;html=1;strokeWidth=3;" parent="1" source="G_lizMxF7PAWGnHg-xAG-4" target="G_lizMxF7PAWGnHg-xAG-11" edge="1">
          <mxGeometry relative="1" as="geometry" />
        </mxCell>
        <mxCell id="G_lizMxF7PAWGnHg-xAG-4" value="&lt;font style=&quot;font-size: 30px;&quot;&gt;&lt;b style=&quot;border-color: var(--border-color); font-family: &amp;quot;Times New Roman&amp;quot;;&quot;&gt;s&lt;/b&gt;&lt;b style=&quot;border-color: var(--border-color); font-family: &amp;quot;Times New Roman&amp;quot;;&quot;&gt;&lt;sub style=&quot;&quot;&gt;3&lt;/sub&gt;&lt;/b&gt;&lt;/font&gt;" style="ellipse;whiteSpace=wrap;html=1;aspect=fixed;strokeWidth=4;" parent="1" vertex="1">
          <mxGeometry x="442.5" y="260" width="50" height="50" as="geometry" />
        </mxCell>
        <mxCell id="G_lizMxF7PAWGnHg-xAG-20" value="" style="edgeStyle=orthogonalEdgeStyle;rounded=0;orthogonalLoop=1;jettySize=auto;html=1;strokeWidth=3;" parent="1" source="G_lizMxF7PAWGnHg-xAG-5" target="G_lizMxF7PAWGnHg-xAG-10" edge="1">
          <mxGeometry relative="1" as="geometry" />
        </mxCell>
        <mxCell id="G_lizMxF7PAWGnHg-xAG-23" value="" style="edgeStyle=orthogonalEdgeStyle;rounded=0;orthogonalLoop=1;jettySize=auto;html=1;strokeWidth=3;" parent="1" source="G_lizMxF7PAWGnHg-xAG-5" target="G_lizMxF7PAWGnHg-xAG-22" edge="1">
          <mxGeometry relative="1" as="geometry" />
        </mxCell>
        <mxCell id="G_lizMxF7PAWGnHg-xAG-5" value="&lt;font style=&quot;font-size: 30px;&quot;&gt;&lt;b style=&quot;border-color: var(--border-color); font-family: &amp;quot;Times New Roman&amp;quot;;&quot;&gt;s&lt;/b&gt;&lt;b style=&quot;border-color: var(--border-color); font-family: &amp;quot;Times New Roman&amp;quot;;&quot;&gt;&lt;sub style=&quot;&quot;&gt;4&lt;/sub&gt;&lt;/b&gt;&lt;/font&gt;" style="ellipse;whiteSpace=wrap;html=1;aspect=fixed;strokeWidth=4;" parent="1" vertex="1">
          <mxGeometry x="544" y="260" width="50" height="50" as="geometry" />
        </mxCell>
        <mxCell id="G_lizMxF7PAWGnHg-xAG-7" value="&lt;font face=&quot;Times New Roman&quot;&gt;&lt;span style=&quot;font-size: 30px;&quot;&gt;&lt;b&gt;o&lt;sub&gt;1&lt;/sub&gt;&lt;/b&gt;&lt;/span&gt;&lt;/font&gt;" style="rounded=1;whiteSpace=wrap;html=1;strokeWidth=4;" parent="1" vertex="1">
          <mxGeometry x="244.5" y="392" width="49" height="40" as="geometry" />
        </mxCell>
        <mxCell id="G_lizMxF7PAWGnHg-xAG-8" value="&lt;font style=&quot;font-size: 30px;&quot;&gt;&lt;b style=&quot;border-color: var(--border-color); font-family: &amp;quot;Times New Roman&amp;quot;;&quot;&gt;o&lt;/b&gt;&lt;b style=&quot;border-color: var(--border-color); font-family: &amp;quot;Times New Roman&amp;quot;;&quot;&gt;&lt;sub style=&quot;&quot;&gt;2&lt;/sub&gt;&lt;/b&gt;&lt;/font&gt;" style="rounded=1;whiteSpace=wrap;html=1;strokeWidth=4;" parent="1" vertex="1">
          <mxGeometry x="344" y="392" width="49" height="40" as="geometry" />
        </mxCell>
        <mxCell id="G_lizMxF7PAWGnHg-xAG-10" value="&lt;font style=&quot;font-size: 30px;&quot;&gt;&lt;b style=&quot;border-color: var(--border-color); font-family: &amp;quot;Times New Roman&amp;quot;;&quot;&gt;o&lt;/b&gt;&lt;b style=&quot;border-color: var(--border-color); font-family: &amp;quot;Times New Roman&amp;quot;;&quot;&gt;&lt;sub style=&quot;&quot;&gt;4&lt;/sub&gt;&lt;/b&gt;&lt;/font&gt;" style="rounded=1;whiteSpace=wrap;html=1;strokeWidth=4;" parent="1" vertex="1">
          <mxGeometry x="545" y="392" width="49" height="40" as="geometry" />
        </mxCell>
        <mxCell id="G_lizMxF7PAWGnHg-xAG-11" value="&lt;font style=&quot;font-size: 30px;&quot;&gt;&lt;b style=&quot;border-color: var(--border-color); font-family: &amp;quot;Times New Roman&amp;quot;;&quot;&gt;o&lt;/b&gt;&lt;b style=&quot;border-color: var(--border-color); font-family: &amp;quot;Times New Roman&amp;quot;;&quot;&gt;&lt;sub style=&quot;&quot;&gt;3&lt;/sub&gt;&lt;/b&gt;&lt;/font&gt;" style="rounded=1;whiteSpace=wrap;html=1;strokeWidth=4;" parent="1" vertex="1">
          <mxGeometry x="443.5" y="392" width="49" height="40" as="geometry" />
        </mxCell>
        <mxCell id="G_lizMxF7PAWGnHg-xAG-21" value="&lt;font style=&quot;font-size: 30px;&quot; face=&quot;Times New Roman&quot;&gt;&lt;b style=&quot;&quot;&gt;y&lt;sub style=&quot;&quot;&gt;t&lt;/sub&gt;&lt;/b&gt;&lt;/font&gt;" style="shape=hexagon;perimeter=hexagonPerimeter2;whiteSpace=wrap;html=1;fixedSize=1;strokeWidth=4;" parent="1" vertex="1">
          <mxGeometry x="130" y="255" width="70" height="60" as="geometry" />
        </mxCell>
        <mxCell id="G_lizMxF7PAWGnHg-xAG-22" value="&lt;b style=&quot;border-color: var(--border-color); font-family: &amp;quot;Times New Roman&amp;quot;; font-size: 27px;&quot;&gt;y&lt;sub style=&quot;border-color: var(--border-color);&quot;&gt;t+1&lt;/sub&gt;&lt;/b&gt;" style="shape=hexagon;perimeter=hexagonPerimeter2;whiteSpace=wrap;html=1;fixedSize=1;strokeWidth=4;" parent="1" vertex="1">
          <mxGeometry x="650" y="255" width="70" height="60" as="geometry" />
        </mxCell>
        <mxCell id="G_lizMxF7PAWGnHg-xAG-27" value="" style="endArrow=classic;html=1;exitX=0.5;exitY=0;exitDx=0;exitDy=0;entryX=0.5;entryY=0;entryDx=0;entryDy=0;curved=1;strokeWidth=3;" parent="1" source="G_lizMxF7PAWGnHg-xAG-2" target="G_lizMxF7PAWGnHg-xAG-2" edge="1">
          <mxGeometry width="50" height="50" relative="1" as="geometry">
            <mxPoint x="260" y="220" as="sourcePoint" />
            <mxPoint x="390" y="180" as="targetPoint" />
            <Array as="points">
              <mxPoint x="230" y="190" />
              <mxPoint x="310" y="190" />
            </Array>
          </mxGeometry>
        </mxCell>
        <mxCell id="G_lizMxF7PAWGnHg-xAG-28" value="" style="endArrow=classic;html=1;exitX=0.5;exitY=0;exitDx=0;exitDy=0;entryX=0.5;entryY=0;entryDx=0;entryDy=0;curved=1;strokeWidth=3;" parent="1" edge="1">
          <mxGeometry width="50" height="50" relative="1" as="geometry">
            <mxPoint x="367.5" y="260" as="sourcePoint" />
            <mxPoint x="367.5" y="260" as="targetPoint" />
            <Array as="points">
              <mxPoint x="328.5" y="190" />
              <mxPoint x="408.5" y="190" />
            </Array>
          </mxGeometry>
        </mxCell>
        <mxCell id="G_lizMxF7PAWGnHg-xAG-29" value="" style="endArrow=classic;html=1;exitX=0.5;exitY=0;exitDx=0;exitDy=0;entryX=0.5;entryY=0;entryDx=0;entryDy=0;curved=1;strokeWidth=3;" parent="1" edge="1">
          <mxGeometry width="50" height="50" relative="1" as="geometry">
            <mxPoint x="467" y="260" as="sourcePoint" />
            <mxPoint x="467" y="260" as="targetPoint" />
            <Array as="points">
              <mxPoint x="428" y="190" />
              <mxPoint x="508" y="190" />
            </Array>
          </mxGeometry>
        </mxCell>
        <mxCell id="G_lizMxF7PAWGnHg-xAG-30" value="" style="endArrow=classic;html=1;exitX=0.5;exitY=0;exitDx=0;exitDy=0;entryX=0.5;entryY=0;entryDx=0;entryDy=0;curved=1;strokeWidth=3;" parent="1" edge="1">
          <mxGeometry width="50" height="50" relative="1" as="geometry">
            <mxPoint x="568.5" y="260" as="sourcePoint" />
            <mxPoint x="568.5" y="260" as="targetPoint" />
            <Array as="points">
              <mxPoint x="529.5" y="190" />
              <mxPoint x="609.5" y="190" />
            </Array>
          </mxGeometry>
        </mxCell>
        <mxCell id="G_lizMxF7PAWGnHg-xAG-31" value="&lt;font face=&quot;Times New Roman&quot;&gt;&lt;span style=&quot;font-size: 15px;&quot;&gt;&lt;b&gt;p&lt;sub&gt;11&lt;/sub&gt;&lt;/b&gt;&lt;/span&gt;&lt;/font&gt;" style="text;html=1;strokeColor=none;fillColor=none;align=center;verticalAlign=middle;whiteSpace=wrap;rounded=0;" parent="1" vertex="1">
          <mxGeometry x="239" y="163" width="60" height="30" as="geometry" />
        </mxCell>
        <mxCell id="G_lizMxF7PAWGnHg-xAG-32" value="&lt;font face=&quot;Times New Roman&quot;&gt;&lt;b style=&quot;&quot;&gt;&lt;span style=&quot;font-size: 15px;&quot;&gt;p&lt;/span&gt;&lt;span style=&quot;font-size: 12.5px;&quot;&gt;&lt;sub&gt;22&lt;/sub&gt;&lt;/span&gt;&lt;/b&gt;&lt;/font&gt;" style="text;html=1;strokeColor=none;fillColor=none;align=center;verticalAlign=middle;whiteSpace=wrap;rounded=0;" parent="1" vertex="1">
          <mxGeometry x="338.5" y="163" width="60" height="30" as="geometry" />
        </mxCell>
        <mxCell id="G_lizMxF7PAWGnHg-xAG-33" value="&lt;font face=&quot;Times New Roman&quot;&gt;&lt;b style=&quot;&quot;&gt;&lt;span style=&quot;font-size: 15px;&quot;&gt;p&lt;/span&gt;&lt;span style=&quot;font-size: 12.5px;&quot;&gt;&lt;sub&gt;33&lt;/sub&gt;&lt;/span&gt;&lt;/b&gt;&lt;/font&gt;" style="text;html=1;strokeColor=none;fillColor=none;align=center;verticalAlign=middle;whiteSpace=wrap;rounded=0;" parent="1" vertex="1">
          <mxGeometry x="438" y="163" width="60" height="30" as="geometry" />
        </mxCell>
        <mxCell id="G_lizMxF7PAWGnHg-xAG-34" value="&lt;font face=&quot;Times New Roman&quot;&gt;&lt;b style=&quot;&quot;&gt;&lt;span style=&quot;font-size: 15px;&quot;&gt;p&lt;/span&gt;&lt;span style=&quot;font-size: 12.5px;&quot;&gt;&lt;sub&gt;44&lt;/sub&gt;&lt;/span&gt;&lt;/b&gt;&lt;/font&gt;" style="text;html=1;strokeColor=none;fillColor=none;align=center;verticalAlign=middle;whiteSpace=wrap;rounded=0;" parent="1" vertex="1">
          <mxGeometry x="539" y="163" width="60" height="30" as="geometry" />
        </mxCell>
        <mxCell id="G_lizMxF7PAWGnHg-xAG-35" value="&lt;font face=&quot;Times New Roman&quot;&gt;&lt;span style=&quot;font-size: 25px;&quot;&gt;&lt;b&gt;p&lt;sub&gt;12&lt;/sub&gt;&lt;/b&gt;&lt;/span&gt;&lt;/font&gt;" style="text;html=1;strokeColor=none;fillColor=none;align=center;verticalAlign=middle;whiteSpace=wrap;rounded=0;" parent="1" vertex="1">
          <mxGeometry x="284" y="247" width="60" height="30" as="geometry" />
        </mxCell>
        <mxCell id="G_lizMxF7PAWGnHg-xAG-36" value="&lt;font face=&quot;Times New Roman&quot;&gt;&lt;span style=&quot;font-size: 25px;&quot;&gt;&lt;b&gt;p&lt;sub&gt;4y&lt;/sub&gt;&lt;/b&gt;&lt;/span&gt;&lt;/font&gt;" style="text;html=1;strokeColor=none;fillColor=none;align=center;verticalAlign=middle;whiteSpace=wrap;rounded=0;" parent="1" vertex="1">
          <mxGeometry x="590" y="250" width="60" height="30" as="geometry" />
        </mxCell>
        <mxCell id="G_lizMxF7PAWGnHg-xAG-37" value="&lt;font style=&quot;font-size: 25px;&quot; face=&quot;Times New Roman&quot;&gt;&lt;b style=&quot;&quot;&gt;&lt;span style=&quot;&quot;&gt;p&lt;/span&gt;&lt;span style=&quot;&quot;&gt;&lt;sub&gt;34&lt;/sub&gt;&lt;/span&gt;&lt;/b&gt;&lt;/font&gt;" style="text;html=1;strokeColor=none;fillColor=none;align=center;verticalAlign=middle;whiteSpace=wrap;rounded=0;" parent="1" vertex="1">
          <mxGeometry x="488" y="248" width="60" height="30" as="geometry" />
        </mxCell>
        <mxCell id="G_lizMxF7PAWGnHg-xAG-38" value="&lt;font face=&quot;Times New Roman&quot;&gt;&lt;b style=&quot;font-size: 25px;&quot;&gt;&lt;span style=&quot;&quot;&gt;p&lt;sub&gt;23&lt;/sub&gt;&lt;/span&gt;&lt;/b&gt;&lt;/font&gt;" style="text;html=1;strokeColor=none;fillColor=none;align=center;verticalAlign=middle;whiteSpace=wrap;rounded=0;" parent="1" vertex="1">
          <mxGeometry x="387" y="248" width="60" height="30" as="geometry" />
        </mxCell>
        <mxCell id="G_lizMxF7PAWGnHg-xAG-41" value="&lt;font face=&quot;Times New Roman&quot;&gt;&lt;span style=&quot;font-size: 25px;&quot;&gt;&lt;b&gt;p&lt;sub&gt;1&lt;/sub&gt;&lt;/b&gt;&lt;/span&gt;&lt;/font&gt;" style="text;html=1;strokeColor=none;fillColor=none;align=center;verticalAlign=middle;whiteSpace=wrap;rounded=0;" parent="1" vertex="1">
          <mxGeometry x="225" y="330" width="60" height="30" as="geometry" />
        </mxCell>
        <mxCell id="G_lizMxF7PAWGnHg-xAG-42" value="&lt;font style=&quot;font-size: 25px;&quot; face=&quot;Times New Roman&quot;&gt;&lt;b style=&quot;&quot;&gt;&lt;span style=&quot;&quot;&gt;p&lt;/span&gt;&lt;span style=&quot;&quot;&gt;&lt;sub&gt;2&lt;/sub&gt;&lt;/span&gt;&lt;/b&gt;&lt;/font&gt;" style="text;html=1;strokeColor=none;fillColor=none;align=center;verticalAlign=middle;whiteSpace=wrap;rounded=0;" parent="1" vertex="1">
          <mxGeometry x="355" y="331" width="60" height="30" as="geometry" />
        </mxCell>
        <mxCell id="G_lizMxF7PAWGnHg-xAG-43" value="&lt;font style=&quot;font-size: 25px;&quot; face=&quot;Times New Roman&quot;&gt;&lt;b style=&quot;&quot;&gt;&lt;span style=&quot;&quot;&gt;p&lt;/span&gt;&lt;span style=&quot;&quot;&gt;&lt;sub&gt;3&lt;/sub&gt;&lt;/span&gt;&lt;/b&gt;&lt;/font&gt;" style="text;html=1;strokeColor=none;fillColor=none;align=center;verticalAlign=middle;whiteSpace=wrap;rounded=0;" parent="1" vertex="1">
          <mxGeometry x="456" y="331" width="60" height="30" as="geometry" />
        </mxCell>
        <mxCell id="G_lizMxF7PAWGnHg-xAG-44" value="&lt;font style=&quot;font-size: 25px;&quot; face=&quot;Times New Roman&quot;&gt;&lt;b style=&quot;&quot;&gt;&lt;span style=&quot;&quot;&gt;p&lt;/span&gt;&lt;span style=&quot;&quot;&gt;&lt;sub&gt;4&lt;/sub&gt;&lt;/span&gt;&lt;/b&gt;&lt;/font&gt;" style="text;html=1;strokeColor=none;fillColor=none;align=center;verticalAlign=middle;whiteSpace=wrap;rounded=0;" parent="1" vertex="1">
          <mxGeometry x="556.5" y="330" width="60" height="30" as="geometry" />
        </mxCell>
        <mxCell id="G_lizMxF7PAWGnHg-xAG-46" value="&lt;font size=&quot;1&quot; style=&quot;&quot; face=&quot;Times New Roman&quot;&gt;&lt;i style=&quot;font-size: 20px;&quot;&gt;Observations&lt;/i&gt;&lt;/font&gt;" style="text;html=1;strokeColor=none;fillColor=none;align=center;verticalAlign=middle;whiteSpace=wrap;rounded=0;fontStyle=1" parent="1" vertex="1">
          <mxGeometry x="150" y="397" width="60" height="30" as="geometry" />
        </mxCell>
        <mxCell id="G_lizMxF7PAWGnHg-xAG-47" value="&lt;p style=&quot;line-height: 120%;&quot;&gt;&lt;font size=&quot;1&quot; style=&quot;&quot; face=&quot;Times New Roman&quot;&gt;&lt;i style=&quot;font-size: 20px;&quot;&gt;Hidden States&lt;/i&gt;&lt;/font&gt;&lt;/p&gt;" style="text;html=1;strokeColor=none;fillColor=none;align=center;verticalAlign=middle;whiteSpace=wrap;rounded=0;fontStyle=1;strokeWidth=6;" parent="1" vertex="1">
          <mxGeometry x="287" y="308" width="60" height="30" as="geometry" />
        </mxCell>
      </root>
    </mxGraphModel>
  </diagram>
</mxfile>
